<svg width="179.9" height="179.9" viewBox="0 0 45 45" preserveAspectRatio="none" xmlns="http://www.w3.org/2000/svg">
  <path fill="#fff" d="M0 0h45v45H0z"/>
  <path style="stroke:#000" transform="translate(4 5)" d="M0 0h1m0 0h1m0 0h1m0 0h1m0 0h1m0 0h1m0 0h1m1 0h1m1 0h1m0 0h1m0 0h1m3 0h1m0 0h1m2 0h1m2 0h1m1 0h1m1 0h1m2 0h1m0 0h1m0 0h1m0 0h1m0 0h1m0 0h1m0 0h1M0 1h1m5 0h1m3 0h1m1 0h1m0 0h1m0 0h1m0 0h1m0 0h1m1 0h1m0 0h1m1 0h1m3 0h1m4 0h1m5 0h1M0 2h1m1 0h1m0 0h1m0 0h1m1 0h1m1 0h1m0 0h1m0 0h1m0 0h1m2 0h1m1 0h1m0 0h1m0 0h1m3 0h1m0 0h1m2 0h1m0 0h1m0 0h1m1 0h1m1 0h1m0 0h1m0 0h1m1 0h1M0 3h1m1 0h1m0 0h1m0 0h1m1 0h1m4 0h1m0 0h1m0 0h1m0 0h1m4 0h1m1 0h1m3 0h1m2 0h1m1 0h1m1 0h1m0 0h1m0 0h1m1 0h1M0 4h1m1 0h1m0 0h1m0 0h1m1 0h1m1 0h1m0 0h1m1 0h1m2 0h1m1 0h1m0 0h1m0 0h1m2 0h1m0 0h1m0 0h1m6 0h1m1 0h1m0 0h1m0 0h1m1 0h1M0 5h1m5 0h1m2 0h1m0 0h1m5 0h1m0 0h1m0 0h1m3 0h1m5 0h1m1 0h1m5 0h1M0 6h1m0 0h1m0 0h1m0 0h1m0 0h1m0 0h1m0 0h1m1 0h1m1 0h1m1 0h1m1 0h1m1 0h1m1 0h1m1 0h1m1 0h1m1 0h1m1 0h1m1 0h1m1 0h1m0 0h1m0 0h1m0 0h1m0 0h1m0 0h1m0 0h1M8 7h1m2 0h1m1 0h1m1 0h1m0 0h1m0 0h1m1 0h1m0 0h1m0 0h1m0 0h1m0 0h1m0 0h1m1 0h1m0 0h1m0 0h1M5 8h1m0 0h1m3 0h1m4 0h1m1 0h1m0 0h1m1 0h1m0 0h1m0 0h1m1 0h1m5 0h1m1 0h1m1 0h1m1 0h1M1 9h1m1 0h1m1 0h1m1 0h1m0 0h1m1 0h1m4 0h1m0 0h1m3 0h1m1 0h1m0 0h1m1 0h1m3 0h1m1 0h1m0 0h1m0 0h1m0 0h1m0 0h1M2 10h1m2 0h1m0 0h1m5 0h1m0 0h1m0 0h1m1 0h1m0 0h1m1 0h1m3 0h1m1 0h1m0 0h1m3 0h1m0 0h1m0 0h1m3 0h1M0 11h1m0 0h1m0 0h1m2 0h1m1 0h1m0 0h1m0 0h1m1 0h1m0 0h1m4 0h1m2 0h1m1 0h1m3 0h1m0 0h1m0 0h1m1 0h1m2 0h1m1 0h1M0 12h1m0 0h1m0 0h1m2 0h1m0 0h1m1 0h1m0 0h1m2 0h1m1 0h1m3 0h1m0 0h1m0 0h1m0 0h1m2 0h1m3 0h1m1 0h1m1 0h1m3 0h1M0 13h1m1 0h1m0 0h1m8 0h1m0 0h1m1 0h1m1 0h1m1 0h1m3 0h1m2 0h1m0 0h1m1 0h1m1 0h1m2 0h1m0 0h1M1 14h1m0 0h1m0 0h1m0 0h1m0 0h1m0 0h1m1 0h1m2 0h1m1 0h1m0 0h1m1 0h1m0 0h1m2 0h1m0 0h1m1 0h1m0 0h1m2 0h1m0 0h1m1 0h1m0 0h1m0 0h1m0 0h1m1 0h1m0 0h1M0 15h1m0 0h1m2 0h1m8 0h1m3 0h1m1 0h1m0 0h1m1 0h1m1 0h1m3 0h1m2 0h1m0 0h1m0 0h1m0 0h1m0 0h1m0 0h1M1 16h1m1 0h1m0 0h1m1 0h1m0 0h1m0 0h1m1 0h1m1 0h1m2 0h1m0 0h1m0 0h1m0 0h1m0 0h1m0 0h1m0 0h1m3 0h1m0 0h1m0 0h1m1 0h1m0 0h1m1 0h1m1 0h1m0 0h1m0 0h1M0 17h1m4 0h1m1 0h1m0 0h1m0 0h1m2 0h1m1 0h1m3 0h1m1 0h1m0 0h1m1 0h1m0 0h1m1 0h1m0 0h1m0 0h1m2 0h1m1 0h1M0 18h1m1 0h1m1 0h1m0 0h1m0 0h1m0 0h1m0 0h1m1 0h1m1 0h1m0 0h1m0 0h1m1 0h1m0 0h1m0 0h1m2 0h1m1 0h1m1 0h1m0 0h1m0 0h1m1 0h1m1 0h1m1 0h1m0 0h1m1 0h1M0 19h1m2 0h1m0 0h1m3 0h1m0 0h1m0 0h1m0 0h1m1 0h1m2 0h1m1 0h1m0 0h1m0 0h1m1 0h1m3 0h1m0 0h1m0 0h1m1 0h1m0 0h1m0 0h1m0 0h1m1 0h1M0 20h1m2 0h1m0 0h1m0 0h1m0 0h1m0 0h1m4 0h1m0 0h1m0 0h1m0 0h1m1 0h1m0 0h1m0 0h1m1 0h1m0 0h1m1 0h1m0 0h1m0 0h1m2 0h1m0 0h1m0 0h1m0 0h1m1 0h1m0 0h1m0 0h1M3 21h1m1 0h1m7 0h1m0 0h1m0 0h1m2 0h1m0 0h1m0 0h1m2 0h1m0 0h1m0 0h1m0 0h1m0 0h1m0 0h1m2 0h1m0 0h1m2 0h1M0 22h1m1 0h1m2 0h1m0 0h1m0 0h1m0 0h1m3 0h1m0 0h1m6 0h1m1 0h1m0 0h1m0 0h1m0 0h1m0 0h1m0 0h1m1 0h1m0 0h1m4 0h1m0 0h1M2 23h1m4 0h1m1 0h1m2 0h1m1 0h1m0 0h1m3 0h1m0 0h1m1 0h1m1 0h1m0 0h1m1 0h1m1 0h1m0 0h1m0 0h1m1 0h1m1 0h1M1 24h1m0 0h1m0 0h1m2 0h1m0 0h1m0 0h1m0 0h1m0 0h1m0 0h1m2 0h1m0 0h1m3 0h1m1 0h1m0 0h1m0 0h1m0 0h1m0 0h1m2 0h1m1 0h1m3 0h1m1 0h1M0 25h1m2 0h1m0 0h1m0 0h1m4 0h1m1 0h1m0 0h1m0 0h1m2 0h1m3 0h1m3 0h1m3 0h1m1 0h1m3 0h1M0 26h1m2 0h1m0 0h1m0 0h1m0 0h1m1 0h1m0 0h1m2 0h1m1 0h1m0 0h1m0 0h1m0 0h1m5 0h1m0 0h1m2 0h1m0 0h1m1 0h1m0 0h1m0 0h1m1 0h1m0 0h1m0 0h1M0 27h1m2 0h1m0 0h1m2 0h1m1 0h1m1 0h1m1 0h1m0 0h1m1 0h1m4 0h1m1 0h1m3 0h1m0 0h1m0 0h1m1 0h1m1 0h1m0 0h1m1 0h1M0 28h1m1 0h1m0 0h1m2 0h1m2 0h1m0 0h1m1 0h1m1 0h1m0 0h1m1 0h1m0 0h1m1 0h1m1 0h1m0 0h1m0 0h1m0 0h1m0 0h1m0 0h1m0 0h1m0 0h1m0 0h1m0 0h1m0 0h1m2 0h1m0 0h1M8 29h1m0 0h1m1 0h1m1 0h1m1 0h1m0 0h1m0 0h1m0 0h1m3 0h1m0 0h1m3 0h1m0 0h1m3 0h1m0 0h1m1 0h1M0 30h1m0 0h1m0 0h1m0 0h1m0 0h1m0 0h1m0 0h1m2 0h1m0 0h1m2 0h1m4 0h1m0 0h1m2 0h1m0 0h1m3 0h1m0 0h1m1 0h1m1 0h1m0 0h1m0 0h1m1 0h1M0 31h1m5 0h1m1 0h1m0 0h1m0 0h1m0 0h1m0 0h1m0 0h1m1 0h1m0 0h1m1 0h1m1 0h1m1 0h1m0 0h1m2 0h1m0 0h1m0 0h1m3 0h1m0 0h1m1 0h1M0 32h1m1 0h1m0 0h1m0 0h1m1 0h1m3 0h1m3 0h1m2 0h1m2 0h1m1 0h1m0 0h1m1 0h1m1 0h1m0 0h1m0 0h1m0 0h1m0 0h1m0 0h1m1 0h1m0 0h1M0 33h1m1 0h1m0 0h1m0 0h1m1 0h1m2 0h1m1 0h1m3 0h1m0 0h1m0 0h1m3 0h1m2 0h1m0 0h1m1 0h1m2 0h1m2 0h1m0 0h1M0 34h1m1 0h1m0 0h1m0 0h1m1 0h1m2 0h1m0 0h1m1 0h1m0 0h1m0 0h1m1 0h1m1 0h1m3 0h1m3 0h1m0 0h1m1 0h1m1 0h1m4 0h1M0 35h1m5 0h1m3 0h1m0 0h1m1 0h1m1 0h1m0 0h1m4 0h1m2 0h1m1 0h1m1 0h1m0 0h1m0 0h1m0 0h1m0 0h1m3 0h1M0 36h1m0 0h1m0 0h1m0 0h1m0 0h1m0 0h1m0 0h1m4 0h1m0 0h1m3 0h1m0 0h1m1 0h1m0 0h1m0 0h1m0 0h1m0 0h1m0 0h1m2 0h1m0 0h1m1 0h1m1 0h1m0 0h1m2 0h1"/>
</svg>
