<svg version="1.0" xmlns="http://www.w3.org/2000/svg" xmlns:xlink="http://www.w3.org/1999/xlink"
	 viewBox="0 0 100 100" enable-background="new 0 0 100 100" xml:space="preserve">
	
<svg xmlns="http://www.w3.org/2000/svg" xmlns:xlink="http://www.w3.org/1999/xlink" version="1.1" width="100" height="100" viewBox="0 0 2000 2000" x="0" y="0" shape-rendering="crispEdges"><defs/><rect x="0" y="0" width="2000" height="2000" fill="#ffffff"/><rect x="609" y="149" width="46" height="46" fill="#000000"/><rect x="701" y="149" width="46" height="46" fill="#000000"/><rect x="1115" y="149" width="46" height="46" fill="#000000"/><rect x="1391" y="149" width="46" height="46" fill="#000000"/><rect x="1437" y="149" width="46" height="46" fill="#000000"/><rect x="517" y="195" width="46" height="46" fill="#000000"/><rect x="609" y="195" width="46" height="46" fill="#000000"/><rect x="747" y="195" width="46" height="46" fill="#000000"/><rect x="793" y="195" width="46" height="46" fill="#000000"/><rect x="931" y="195" width="46" height="46" fill="#000000"/><rect x="1161" y="195" width="46" height="46" fill="#000000"/><rect x="1253" y="195" width="46" height="46" fill="#000000"/><rect x="1299" y="195" width="46" height="46" fill="#000000"/><rect x="1345" y="195" width="46" height="46" fill="#000000"/><rect x="1391" y="195" width="46" height="46" fill="#000000"/><rect x="701" y="241" width="46" height="46" fill="#000000"/><rect x="885" y="241" width="46" height="46" fill="#000000"/><rect x="1023" y="241" width="46" height="46" fill="#000000"/><rect x="1069" y="241" width="46" height="46" fill="#000000"/><rect x="1207" y="241" width="46" height="46" fill="#000000"/><rect x="1437" y="241" width="46" height="46" fill="#000000"/><rect x="517" y="287" width="46" height="46" fill="#000000"/><rect x="563" y="287" width="46" height="46" fill="#000000"/><rect x="609" y="287" width="46" height="46" fill="#000000"/><rect x="701" y="287" width="46" height="46" fill="#000000"/><rect x="839" y="287" width="46" height="46" fill="#000000"/><rect x="885" y="287" width="46" height="46" fill="#000000"/><rect x="931" y="287" width="46" height="46" fill="#000000"/><rect x="977" y="287" width="46" height="46" fill="#000000"/><rect x="1391" y="287" width="46" height="46" fill="#000000"/><rect x="563" y="333" width="46" height="46" fill="#000000"/><rect x="793" y="333" width="46" height="46" fill="#000000"/><rect x="1069" y="333" width="46" height="46" fill="#000000"/><rect x="1115" y="333" width="46" height="46" fill="#000000"/><rect x="1207" y="333" width="46" height="46" fill="#000000"/><rect x="1253" y="333" width="46" height="46" fill="#000000"/><rect x="1345" y="333" width="46" height="46" fill="#000000"/><rect x="517" y="379" width="46" height="46" fill="#000000"/><rect x="563" y="379" width="46" height="46" fill="#000000"/><rect x="655" y="379" width="46" height="46" fill="#000000"/><rect x="701" y="379" width="46" height="46" fill="#000000"/><rect x="747" y="379" width="46" height="46" fill="#000000"/><rect x="793" y="379" width="46" height="46" fill="#000000"/><rect x="931" y="379" width="46" height="46" fill="#000000"/><rect x="1161" y="379" width="46" height="46" fill="#000000"/><rect x="1299" y="379" width="46" height="46" fill="#000000"/><rect x="1345" y="379" width="46" height="46" fill="#000000"/><rect x="517" y="425" width="46" height="46" fill="#000000"/><rect x="609" y="425" width="46" height="46" fill="#000000"/><rect x="701" y="425" width="46" height="46" fill="#000000"/><rect x="793" y="425" width="46" height="46" fill="#000000"/><rect x="885" y="425" width="46" height="46" fill="#000000"/><rect x="977" y="425" width="46" height="46" fill="#000000"/><rect x="1069" y="425" width="46" height="46" fill="#000000"/><rect x="1161" y="425" width="46" height="46" fill="#000000"/><rect x="1253" y="425" width="46" height="46" fill="#000000"/><rect x="1345" y="425" width="46" height="46" fill="#000000"/><rect x="1437" y="425" width="46" height="46" fill="#000000"/><rect x="563" y="471" width="46" height="46" fill="#000000"/><rect x="609" y="471" width="46" height="46" fill="#000000"/><rect x="655" y="471" width="46" height="46" fill="#000000"/><rect x="793" y="471" width="46" height="46" fill="#000000"/><rect x="885" y="471" width="46" height="46" fill="#000000"/><rect x="931" y="471" width="46" height="46" fill="#000000"/><rect x="977" y="471" width="46" height="46" fill="#000000"/><rect x="1023" y="471" width="46" height="46" fill="#000000"/><rect x="1069" y="471" width="46" height="46" fill="#000000"/><rect x="1115" y="471" width="46" height="46" fill="#000000"/><rect x="1161" y="471" width="46" height="46" fill="#000000"/><rect x="1207" y="471" width="46" height="46" fill="#000000"/><rect x="1345" y="471" width="46" height="46" fill="#000000"/><rect x="1437" y="471" width="46" height="46" fill="#000000"/><rect x="149" y="517" width="46" height="46" fill="#000000"/><rect x="195" y="517" width="46" height="46" fill="#000000"/><rect x="241" y="517" width="46" height="46" fill="#000000"/><rect x="287" y="517" width="46" height="46" fill="#000000"/><rect x="333" y="517" width="46" height="46" fill="#000000"/><rect x="425" y="517" width="46" height="46" fill="#000000"/><rect x="471" y="517" width="46" height="46" fill="#000000"/><rect x="517" y="517" width="46" height="46" fill="#000000"/><rect x="563" y="517" width="46" height="46" fill="#000000"/><rect x="655" y="517" width="46" height="46" fill="#000000"/><rect x="747" y="517" width="46" height="46" fill="#000000"/><rect x="839" y="517" width="46" height="46" fill="#000000"/><rect x="931" y="517" width="46" height="46" fill="#000000"/><rect x="977" y="517" width="46" height="46" fill="#000000"/><rect x="1069" y="517" width="46" height="46" fill="#000000"/><rect x="1299" y="517" width="46" height="46" fill="#000000"/><rect x="1391" y="517" width="46" height="46" fill="#000000"/><rect x="1437" y="517" width="46" height="46" fill="#000000"/><rect x="1483" y="517" width="46" height="46" fill="#000000"/><rect x="1575" y="517" width="46" height="46" fill="#000000"/><rect x="1667" y="517" width="46" height="46" fill="#000000"/><rect x="1759" y="517" width="46" height="46" fill="#000000"/><rect x="195" y="563" width="46" height="46" fill="#000000"/><rect x="287" y="563" width="46" height="46" fill="#000000"/><rect x="379" y="563" width="46" height="46" fill="#000000"/><rect x="471" y="563" width="46" height="46" fill="#000000"/><rect x="563" y="563" width="46" height="46" fill="#000000"/><rect x="609" y="563" width="46" height="46" fill="#000000"/><rect x="701" y="563" width="46" height="46" fill="#000000"/><rect x="793" y="563" width="46" height="46" fill="#000000"/><rect x="839" y="563" width="46" height="46" fill="#000000"/><rect x="885" y="563" width="46" height="46" fill="#000000"/><rect x="977" y="563" width="46" height="46" fill="#000000"/><rect x="1023" y="563" width="46" height="46" fill="#000000"/><rect x="1115" y="563" width="46" height="46" fill="#000000"/><rect x="1161" y="563" width="46" height="46" fill="#000000"/><rect x="1253" y="563" width="46" height="46" fill="#000000"/><rect x="1345" y="563" width="46" height="46" fill="#000000"/><rect x="1437" y="563" width="46" height="46" fill="#000000"/><rect x="1483" y="563" width="46" height="46" fill="#000000"/><rect x="1575" y="563" width="46" height="46" fill="#000000"/><rect x="1621" y="563" width="46" height="46" fill="#000000"/><rect x="1805" y="563" width="46" height="46" fill="#000000"/><rect x="149" y="609" width="46" height="46" fill="#000000"/><rect x="195" y="609" width="46" height="46" fill="#000000"/><rect x="287" y="609" width="46" height="46" fill="#000000"/><rect x="333" y="609" width="46" height="46" fill="#000000"/><rect x="379" y="609" width="46" height="46" fill="#000000"/><rect x="425" y="609" width="46" height="46" fill="#000000"/><rect x="517" y="609" width="46" height="46" fill="#000000"/><rect x="563" y="609" width="46" height="46" fill="#000000"/><rect x="747" y="609" width="46" height="46" fill="#000000"/><rect x="793" y="609" width="46" height="46" fill="#000000"/><rect x="839" y="609" width="46" height="46" fill="#000000"/><rect x="931" y="609" width="46" height="46" fill="#000000"/><rect x="1023" y="609" width="46" height="46" fill="#000000"/><rect x="1161" y="609" width="46" height="46" fill="#000000"/><rect x="1253" y="609" width="46" height="46" fill="#000000"/><rect x="1299" y="609" width="46" height="46" fill="#000000"/><rect x="1345" y="609" width="46" height="46" fill="#000000"/><rect x="1437" y="609" width="46" height="46" fill="#000000"/><rect x="1483" y="609" width="46" height="46" fill="#000000"/><rect x="1529" y="609" width="46" height="46" fill="#000000"/><rect x="1621" y="609" width="46" height="46" fill="#000000"/><rect x="1713" y="609" width="46" height="46" fill="#000000"/><rect x="1805" y="609" width="46" height="46" fill="#000000"/><rect x="333" y="655" width="46" height="46" fill="#000000"/><rect x="517" y="655" width="46" height="46" fill="#000000"/><rect x="563" y="655" width="46" height="46" fill="#000000"/><rect x="609" y="655" width="46" height="46" fill="#000000"/><rect x="701" y="655" width="46" height="46" fill="#000000"/><rect x="885" y="655" width="46" height="46" fill="#000000"/><rect x="977" y="655" width="46" height="46" fill="#000000"/><rect x="1023" y="655" width="46" height="46" fill="#000000"/><rect x="1069" y="655" width="46" height="46" fill="#000000"/><rect x="1115" y="655" width="46" height="46" fill="#000000"/><rect x="1207" y="655" width="46" height="46" fill="#000000"/><rect x="1299" y="655" width="46" height="46" fill="#000000"/><rect x="1667" y="655" width="46" height="46" fill="#000000"/><rect x="1759" y="655" width="46" height="46" fill="#000000"/><rect x="333" y="701" width="46" height="46" fill="#000000"/><rect x="379" y="701" width="46" height="46" fill="#000000"/><rect x="425" y="701" width="46" height="46" fill="#000000"/><rect x="471" y="701" width="46" height="46" fill="#000000"/><rect x="609" y="701" width="46" height="46" fill="#000000"/><rect x="701" y="701" width="46" height="46" fill="#000000"/><rect x="793" y="701" width="46" height="46" fill="#000000"/><rect x="839" y="701" width="46" height="46" fill="#000000"/><rect x="885" y="701" width="46" height="46" fill="#000000"/><rect x="1115" y="701" width="46" height="46" fill="#000000"/><rect x="1253" y="701" width="46" height="46" fill="#000000"/><rect x="1299" y="701" width="46" height="46" fill="#000000"/><rect x="1391" y="701" width="46" height="46" fill="#000000"/><rect x="1437" y="701" width="46" height="46" fill="#000000"/><rect x="1483" y="701" width="46" height="46" fill="#000000"/><rect x="1529" y="701" width="46" height="46" fill="#000000"/><rect x="1575" y="701" width="46" height="46" fill="#000000"/><rect x="1713" y="701" width="46" height="46" fill="#000000"/><rect x="1759" y="701" width="46" height="46" fill="#000000"/><rect x="1805" y="701" width="46" height="46" fill="#000000"/><rect x="149" y="747" width="46" height="46" fill="#000000"/><rect x="195" y="747" width="46" height="46" fill="#000000"/><rect x="241" y="747" width="46" height="46" fill="#000000"/><rect x="563" y="747" width="46" height="46" fill="#000000"/><rect x="977" y="747" width="46" height="46" fill="#000000"/><rect x="1069" y="747" width="46" height="46" fill="#000000"/><rect x="1115" y="747" width="46" height="46" fill="#000000"/><rect x="1161" y="747" width="46" height="46" fill="#000000"/><rect x="1345" y="747" width="46" height="46" fill="#000000"/><rect x="1391" y="747" width="46" height="46" fill="#000000"/><rect x="1529" y="747" width="46" height="46" fill="#000000"/><rect x="1575" y="747" width="46" height="46" fill="#000000"/><rect x="1667" y="747" width="46" height="46" fill="#000000"/><rect x="1805" y="747" width="46" height="46" fill="#000000"/><rect x="149" y="793" width="46" height="46" fill="#000000"/><rect x="241" y="793" width="46" height="46" fill="#000000"/><rect x="287" y="793" width="46" height="46" fill="#000000"/><rect x="379" y="793" width="46" height="46" fill="#000000"/><rect x="425" y="793" width="46" height="46" fill="#000000"/><rect x="471" y="793" width="46" height="46" fill="#000000"/><rect x="655" y="793" width="46" height="46" fill="#000000"/><rect x="701" y="793" width="46" height="46" fill="#000000"/><rect x="747" y="793" width="46" height="46" fill="#000000"/><rect x="793" y="793" width="46" height="46" fill="#000000"/><rect x="839" y="793" width="46" height="46" fill="#000000"/><rect x="885" y="793" width="46" height="46" fill="#000000"/><rect x="931" y="793" width="46" height="46" fill="#000000"/><rect x="1023" y="793" width="46" height="46" fill="#000000"/><rect x="1161" y="793" width="46" height="46" fill="#000000"/><rect x="1253" y="793" width="46" height="46" fill="#000000"/><rect x="1299" y="793" width="46" height="46" fill="#000000"/><rect x="1345" y="793" width="46" height="46" fill="#000000"/><rect x="1391" y="793" width="46" height="46" fill="#000000"/><rect x="1437" y="793" width="46" height="46" fill="#000000"/><rect x="1483" y="793" width="46" height="46" fill="#000000"/><rect x="1529" y="793" width="46" height="46" fill="#000000"/><rect x="1621" y="793" width="46" height="46" fill="#000000"/><rect x="1713" y="793" width="46" height="46" fill="#000000"/><rect x="1759" y="793" width="46" height="46" fill="#000000"/><rect x="1805" y="793" width="46" height="46" fill="#000000"/><rect x="287" y="839" width="46" height="46" fill="#000000"/><rect x="333" y="839" width="46" height="46" fill="#000000"/><rect x="517" y="839" width="46" height="46" fill="#000000"/><rect x="563" y="839" width="46" height="46" fill="#000000"/><rect x="609" y="839" width="46" height="46" fill="#000000"/><rect x="655" y="839" width="46" height="46" fill="#000000"/><rect x="747" y="839" width="46" height="46" fill="#000000"/><rect x="885" y="839" width="46" height="46" fill="#000000"/><rect x="931" y="839" width="46" height="46" fill="#000000"/><rect x="977" y="839" width="46" height="46" fill="#000000"/><rect x="1023" y="839" width="46" height="46" fill="#000000"/><rect x="1069" y="839" width="46" height="46" fill="#000000"/><rect x="1115" y="839" width="46" height="46" fill="#000000"/><rect x="1207" y="839" width="46" height="46" fill="#000000"/><rect x="1391" y="839" width="46" height="46" fill="#000000"/><rect x="1437" y="839" width="46" height="46" fill="#000000"/><rect x="1483" y="839" width="46" height="46" fill="#000000"/><rect x="1529" y="839" width="46" height="46" fill="#000000"/><rect x="1575" y="839" width="46" height="46" fill="#000000"/><rect x="1667" y="839" width="46" height="46" fill="#000000"/><rect x="1713" y="839" width="46" height="46" fill="#000000"/><rect x="1759" y="839" width="46" height="46" fill="#000000"/><rect x="241" y="885" width="46" height="46" fill="#000000"/><rect x="333" y="885" width="46" height="46" fill="#000000"/><rect x="425" y="885" width="46" height="46" fill="#000000"/><rect x="563" y="885" width="46" height="46" fill="#000000"/><rect x="655" y="885" width="46" height="46" fill="#000000"/><rect x="747" y="885" width="46" height="46" fill="#000000"/><rect x="839" y="885" width="46" height="46" fill="#000000"/><rect x="885" y="885" width="46" height="46" fill="#000000"/><rect x="1069" y="885" width="46" height="46" fill="#000000"/><rect x="1115" y="885" width="46" height="46" fill="#000000"/><rect x="1161" y="885" width="46" height="46" fill="#000000"/><rect x="1253" y="885" width="46" height="46" fill="#000000"/><rect x="1345" y="885" width="46" height="46" fill="#000000"/><rect x="1391" y="885" width="46" height="46" fill="#000000"/><rect x="1437" y="885" width="46" height="46" fill="#000000"/><rect x="1529" y="885" width="46" height="46" fill="#000000"/><rect x="1621" y="885" width="46" height="46" fill="#000000"/><rect x="1667" y="885" width="46" height="46" fill="#000000"/><rect x="1713" y="885" width="46" height="46" fill="#000000"/><rect x="1759" y="885" width="46" height="46" fill="#000000"/><rect x="1805" y="885" width="46" height="46" fill="#000000"/><rect x="149" y="931" width="46" height="46" fill="#000000"/><rect x="241" y="931" width="46" height="46" fill="#000000"/><rect x="333" y="931" width="46" height="46" fill="#000000"/><rect x="517" y="931" width="46" height="46" fill="#000000"/><rect x="563" y="931" width="46" height="46" fill="#000000"/><rect x="701" y="931" width="46" height="46" fill="#000000"/><rect x="793" y="931" width="46" height="46" fill="#000000"/><rect x="839" y="931" width="46" height="46" fill="#000000"/><rect x="977" y="931" width="46" height="46" fill="#000000"/><rect x="1115" y="931" width="46" height="46" fill="#000000"/><rect x="1207" y="931" width="46" height="46" fill="#000000"/><rect x="1253" y="931" width="46" height="46" fill="#000000"/><rect x="1483" y="931" width="46" height="46" fill="#000000"/><rect x="1529" y="931" width="46" height="46" fill="#000000"/><rect x="1667" y="931" width="46" height="46" fill="#000000"/><rect x="1805" y="931" width="46" height="46" fill="#000000"/><rect x="149" y="977" width="46" height="46" fill="#000000"/><rect x="379" y="977" width="46" height="46" fill="#000000"/><rect x="425" y="977" width="46" height="46" fill="#000000"/><rect x="471" y="977" width="46" height="46" fill="#000000"/><rect x="517" y="977" width="46" height="46" fill="#000000"/><rect x="563" y="977" width="46" height="46" fill="#000000"/><rect x="747" y="977" width="46" height="46" fill="#000000"/><rect x="793" y="977" width="46" height="46" fill="#000000"/><rect x="839" y="977" width="46" height="46" fill="#000000"/><rect x="931" y="977" width="46" height="46" fill="#000000"/><rect x="1161" y="977" width="46" height="46" fill="#000000"/><rect x="1207" y="977" width="46" height="46" fill="#000000"/><rect x="1253" y="977" width="46" height="46" fill="#000000"/><rect x="1299" y="977" width="46" height="46" fill="#000000"/><rect x="1345" y="977" width="46" height="46" fill="#000000"/><rect x="1391" y="977" width="46" height="46" fill="#000000"/><rect x="1483" y="977" width="46" height="46" fill="#000000"/><rect x="1529" y="977" width="46" height="46" fill="#000000"/><rect x="1621" y="977" width="46" height="46" fill="#000000"/><rect x="1667" y="977" width="46" height="46" fill="#000000"/><rect x="1713" y="977" width="46" height="46" fill="#000000"/><rect x="1759" y="977" width="46" height="46" fill="#000000"/><rect x="1805" y="977" width="46" height="46" fill="#000000"/><rect x="379" y="1023" width="46" height="46" fill="#000000"/><rect x="701" y="1023" width="46" height="46" fill="#000000"/><rect x="747" y="1023" width="46" height="46" fill="#000000"/><rect x="885" y="1023" width="46" height="46" fill="#000000"/><rect x="931" y="1023" width="46" height="46" fill="#000000"/><rect x="977" y="1023" width="46" height="46" fill="#000000"/><rect x="1023" y="1023" width="46" height="46" fill="#000000"/><rect x="1069" y="1023" width="46" height="46" fill="#000000"/><rect x="1115" y="1023" width="46" height="46" fill="#000000"/><rect x="1207" y="1023" width="46" height="46" fill="#000000"/><rect x="1299" y="1023" width="46" height="46" fill="#000000"/><rect x="1437" y="1023" width="46" height="46" fill="#000000"/><rect x="1483" y="1023" width="46" height="46" fill="#000000"/><rect x="1575" y="1023" width="46" height="46" fill="#000000"/><rect x="1713" y="1023" width="46" height="46" fill="#000000"/><rect x="1759" y="1023" width="46" height="46" fill="#000000"/><rect x="149" y="1069" width="46" height="46" fill="#000000"/><rect x="195" y="1069" width="46" height="46" fill="#000000"/><rect x="241" y="1069" width="46" height="46" fill="#000000"/><rect x="333" y="1069" width="46" height="46" fill="#000000"/><rect x="379" y="1069" width="46" height="46" fill="#000000"/><rect x="425" y="1069" width="46" height="46" fill="#000000"/><rect x="471" y="1069" width="46" height="46" fill="#000000"/><rect x="701" y="1069" width="46" height="46" fill="#000000"/><rect x="747" y="1069" width="46" height="46" fill="#000000"/><rect x="839" y="1069" width="46" height="46" fill="#000000"/><rect x="931" y="1069" width="46" height="46" fill="#000000"/><rect x="977" y="1069" width="46" height="46" fill="#000000"/><rect x="1069" y="1069" width="46" height="46" fill="#000000"/><rect x="1115" y="1069" width="46" height="46" fill="#000000"/><rect x="1299" y="1069" width="46" height="46" fill="#000000"/><rect x="1391" y="1069" width="46" height="46" fill="#000000"/><rect x="1483" y="1069" width="46" height="46" fill="#000000"/><rect x="1529" y="1069" width="46" height="46" fill="#000000"/><rect x="1621" y="1069" width="46" height="46" fill="#000000"/><rect x="1713" y="1069" width="46" height="46" fill="#000000"/><rect x="1759" y="1069" width="46" height="46" fill="#000000"/><rect x="1805" y="1069" width="46" height="46" fill="#000000"/><rect x="149" y="1115" width="46" height="46" fill="#000000"/><rect x="287" y="1115" width="46" height="46" fill="#000000"/><rect x="609" y="1115" width="46" height="46" fill="#000000"/><rect x="793" y="1115" width="46" height="46" fill="#000000"/><rect x="1023" y="1115" width="46" height="46" fill="#000000"/><rect x="1115" y="1115" width="46" height="46" fill="#000000"/><rect x="1161" y="1115" width="46" height="46" fill="#000000"/><rect x="1253" y="1115" width="46" height="46" fill="#000000"/><rect x="1391" y="1115" width="46" height="46" fill="#000000"/><rect x="1483" y="1115" width="46" height="46" fill="#000000"/><rect x="1575" y="1115" width="46" height="46" fill="#000000"/><rect x="1621" y="1115" width="46" height="46" fill="#000000"/><rect x="1667" y="1115" width="46" height="46" fill="#000000"/><rect x="1805" y="1115" width="46" height="46" fill="#000000"/><rect x="149" y="1161" width="46" height="46" fill="#000000"/><rect x="195" y="1161" width="46" height="46" fill="#000000"/><rect x="241" y="1161" width="46" height="46" fill="#000000"/><rect x="287" y="1161" width="46" height="46" fill="#000000"/><rect x="425" y="1161" width="46" height="46" fill="#000000"/><rect x="609" y="1161" width="46" height="46" fill="#000000"/><rect x="655" y="1161" width="46" height="46" fill="#000000"/><rect x="701" y="1161" width="46" height="46" fill="#000000"/><rect x="931" y="1161" width="46" height="46" fill="#000000"/><rect x="1069" y="1161" width="46" height="46" fill="#000000"/><rect x="1161" y="1161" width="46" height="46" fill="#000000"/><rect x="1253" y="1161" width="46" height="46" fill="#000000"/><rect x="1299" y="1161" width="46" height="46" fill="#000000"/><rect x="1345" y="1161" width="46" height="46" fill="#000000"/><rect x="1437" y="1161" width="46" height="46" fill="#000000"/><rect x="1529" y="1161" width="46" height="46" fill="#000000"/><rect x="1621" y="1161" width="46" height="46" fill="#000000"/><rect x="1667" y="1161" width="46" height="46" fill="#000000"/><rect x="1713" y="1161" width="46" height="46" fill="#000000"/><rect x="333" y="1207" width="46" height="46" fill="#000000"/><rect x="471" y="1207" width="46" height="46" fill="#000000"/><rect x="517" y="1207" width="46" height="46" fill="#000000"/><rect x="655" y="1207" width="46" height="46" fill="#000000"/><rect x="885" y="1207" width="46" height="46" fill="#000000"/><rect x="977" y="1207" width="46" height="46" fill="#000000"/><rect x="1023" y="1207" width="46" height="46" fill="#000000"/><rect x="1069" y="1207" width="46" height="46" fill="#000000"/><rect x="1115" y="1207" width="46" height="46" fill="#000000"/><rect x="1161" y="1207" width="46" height="46" fill="#000000"/><rect x="1207" y="1207" width="46" height="46" fill="#000000"/><rect x="1345" y="1207" width="46" height="46" fill="#000000"/><rect x="1391" y="1207" width="46" height="46" fill="#000000"/><rect x="1437" y="1207" width="46" height="46" fill="#000000"/><rect x="1483" y="1207" width="46" height="46" fill="#000000"/><rect x="1713" y="1207" width="46" height="46" fill="#000000"/><rect x="241" y="1253" width="46" height="46" fill="#000000"/><rect x="425" y="1253" width="46" height="46" fill="#000000"/><rect x="563" y="1253" width="46" height="46" fill="#000000"/><rect x="609" y="1253" width="46" height="46" fill="#000000"/><rect x="655" y="1253" width="46" height="46" fill="#000000"/><rect x="839" y="1253" width="46" height="46" fill="#000000"/><rect x="1253" y="1253" width="46" height="46" fill="#000000"/><rect x="1299" y="1253" width="46" height="46" fill="#000000"/><rect x="1391" y="1253" width="46" height="46" fill="#000000"/><rect x="1437" y="1253" width="46" height="46" fill="#000000"/><rect x="1483" y="1253" width="46" height="46" fill="#000000"/><rect x="1529" y="1253" width="46" height="46" fill="#000000"/><rect x="1575" y="1253" width="46" height="46" fill="#000000"/><rect x="1713" y="1253" width="46" height="46" fill="#000000"/><rect x="1759" y="1253" width="46" height="46" fill="#000000"/><rect x="1805" y="1253" width="46" height="46" fill="#000000"/><rect x="149" y="1299" width="46" height="46" fill="#000000"/><rect x="195" y="1299" width="46" height="46" fill="#000000"/><rect x="379" y="1299" width="46" height="46" fill="#000000"/><rect x="471" y="1299" width="46" height="46" fill="#000000"/><rect x="609" y="1299" width="46" height="46" fill="#000000"/><rect x="701" y="1299" width="46" height="46" fill="#000000"/><rect x="747" y="1299" width="46" height="46" fill="#000000"/><rect x="839" y="1299" width="46" height="46" fill="#000000"/><rect x="885" y="1299" width="46" height="46" fill="#000000"/><rect x="977" y="1299" width="46" height="46" fill="#000000"/><rect x="1069" y="1299" width="46" height="46" fill="#000000"/><rect x="1115" y="1299" width="46" height="46" fill="#000000"/><rect x="1161" y="1299" width="46" height="46" fill="#000000"/><rect x="1345" y="1299" width="46" height="46" fill="#000000"/><rect x="1437" y="1299" width="46" height="46" fill="#000000"/><rect x="1529" y="1299" width="46" height="46" fill="#000000"/><rect x="1575" y="1299" width="46" height="46" fill="#000000"/><rect x="149" y="1345" width="46" height="46" fill="#000000"/><rect x="425" y="1345" width="46" height="46" fill="#000000"/><rect x="471" y="1345" width="46" height="46" fill="#000000"/><rect x="517" y="1345" width="46" height="46" fill="#000000"/><rect x="747" y="1345" width="46" height="46" fill="#000000"/><rect x="793" y="1345" width="46" height="46" fill="#000000"/><rect x="839" y="1345" width="46" height="46" fill="#000000"/><rect x="931" y="1345" width="46" height="46" fill="#000000"/><rect x="1161" y="1345" width="46" height="46" fill="#000000"/><rect x="1253" y="1345" width="46" height="46" fill="#000000"/><rect x="1299" y="1345" width="46" height="46" fill="#000000"/><rect x="1345" y="1345" width="46" height="46" fill="#000000"/><rect x="1391" y="1345" width="46" height="46" fill="#000000"/><rect x="1483" y="1345" width="46" height="46" fill="#000000"/><rect x="1529" y="1345" width="46" height="46" fill="#000000"/><rect x="1575" y="1345" width="46" height="46" fill="#000000"/><rect x="1621" y="1345" width="46" height="46" fill="#000000"/><rect x="1713" y="1345" width="46" height="46" fill="#000000"/><rect x="149" y="1391" width="46" height="46" fill="#000000"/><rect x="241" y="1391" width="46" height="46" fill="#000000"/><rect x="333" y="1391" width="46" height="46" fill="#000000"/><rect x="379" y="1391" width="46" height="46" fill="#000000"/><rect x="471" y="1391" width="46" height="46" fill="#000000"/><rect x="563" y="1391" width="46" height="46" fill="#000000"/><rect x="609" y="1391" width="46" height="46" fill="#000000"/><rect x="701" y="1391" width="46" height="46" fill="#000000"/><rect x="747" y="1391" width="46" height="46" fill="#000000"/><rect x="885" y="1391" width="46" height="46" fill="#000000"/><rect x="931" y="1391" width="46" height="46" fill="#000000"/><rect x="977" y="1391" width="46" height="46" fill="#000000"/><rect x="1023" y="1391" width="46" height="46" fill="#000000"/><rect x="1069" y="1391" width="46" height="46" fill="#000000"/><rect x="1207" y="1391" width="46" height="46" fill="#000000"/><rect x="1299" y="1391" width="46" height="46" fill="#000000"/><rect x="1437" y="1391" width="46" height="46" fill="#000000"/><rect x="1483" y="1391" width="46" height="46" fill="#000000"/><rect x="1575" y="1391" width="46" height="46" fill="#000000"/><rect x="1667" y="1391" width="46" height="46" fill="#000000"/><rect x="1713" y="1391" width="46" height="46" fill="#000000"/><rect x="1759" y="1391" width="46" height="46" fill="#000000"/><rect x="1805" y="1391" width="46" height="46" fill="#000000"/><rect x="149" y="1437" width="46" height="46" fill="#000000"/><rect x="379" y="1437" width="46" height="46" fill="#000000"/><rect x="425" y="1437" width="46" height="46" fill="#000000"/><rect x="471" y="1437" width="46" height="46" fill="#000000"/><rect x="517" y="1437" width="46" height="46" fill="#000000"/><rect x="609" y="1437" width="46" height="46" fill="#000000"/><rect x="701" y="1437" width="46" height="46" fill="#000000"/><rect x="793" y="1437" width="46" height="46" fill="#000000"/><rect x="839" y="1437" width="46" height="46" fill="#000000"/><rect x="885" y="1437" width="46" height="46" fill="#000000"/><rect x="931" y="1437" width="46" height="46" fill="#000000"/><rect x="977" y="1437" width="46" height="46" fill="#000000"/><rect x="1069" y="1437" width="46" height="46" fill="#000000"/><rect x="1253" y="1437" width="46" height="46" fill="#000000"/><rect x="1299" y="1437" width="46" height="46" fill="#000000"/><rect x="1391" y="1437" width="46" height="46" fill="#000000"/><rect x="1437" y="1437" width="46" height="46" fill="#000000"/><rect x="1483" y="1437" width="46" height="46" fill="#000000"/><rect x="1529" y="1437" width="46" height="46" fill="#000000"/><rect x="1575" y="1437" width="46" height="46" fill="#000000"/><rect x="1621" y="1437" width="46" height="46" fill="#000000"/><rect x="1759" y="1437" width="46" height="46" fill="#000000"/><rect x="1805" y="1437" width="46" height="46" fill="#000000"/><rect x="517" y="1483" width="46" height="46" fill="#000000"/><rect x="563" y="1483" width="46" height="46" fill="#000000"/><rect x="977" y="1483" width="46" height="46" fill="#000000"/><rect x="1023" y="1483" width="46" height="46" fill="#000000"/><rect x="1115" y="1483" width="46" height="46" fill="#000000"/><rect x="1161" y="1483" width="46" height="46" fill="#000000"/><rect x="1345" y="1483" width="46" height="46" fill="#000000"/><rect x="1437" y="1483" width="46" height="46" fill="#000000"/><rect x="1621" y="1483" width="46" height="46" fill="#000000"/><rect x="1805" y="1483" width="46" height="46" fill="#000000"/><rect x="517" y="1529" width="46" height="46" fill="#000000"/><rect x="563" y="1529" width="46" height="46" fill="#000000"/><rect x="609" y="1529" width="46" height="46" fill="#000000"/><rect x="655" y="1529" width="46" height="46" fill="#000000"/><rect x="701" y="1529" width="46" height="46" fill="#000000"/><rect x="931" y="1529" width="46" height="46" fill="#000000"/><rect x="1023" y="1529" width="46" height="46" fill="#000000"/><rect x="1161" y="1529" width="46" height="46" fill="#000000"/><rect x="1207" y="1529" width="46" height="46" fill="#000000"/><rect x="1253" y="1529" width="46" height="46" fill="#000000"/><rect x="1299" y="1529" width="46" height="46" fill="#000000"/><rect x="1345" y="1529" width="46" height="46" fill="#000000"/><rect x="1437" y="1529" width="46" height="46" fill="#000000"/><rect x="1529" y="1529" width="46" height="46" fill="#000000"/><rect x="1621" y="1529" width="46" height="46" fill="#000000"/><rect x="1667" y="1529" width="46" height="46" fill="#000000"/><rect x="1713" y="1529" width="46" height="46" fill="#000000"/><rect x="1759" y="1529" width="46" height="46" fill="#000000"/><rect x="1805" y="1529" width="46" height="46" fill="#000000"/><rect x="655" y="1575" width="46" height="46" fill="#000000"/><rect x="793" y="1575" width="46" height="46" fill="#000000"/><rect x="885" y="1575" width="46" height="46" fill="#000000"/><rect x="1023" y="1575" width="46" height="46" fill="#000000"/><rect x="1069" y="1575" width="46" height="46" fill="#000000"/><rect x="1115" y="1575" width="46" height="46" fill="#000000"/><rect x="1207" y="1575" width="46" height="46" fill="#000000"/><rect x="1437" y="1575" width="46" height="46" fill="#000000"/><rect x="1621" y="1575" width="46" height="46" fill="#000000"/><rect x="1713" y="1575" width="46" height="46" fill="#000000"/><rect x="517" y="1621" width="46" height="46" fill="#000000"/><rect x="609" y="1621" width="46" height="46" fill="#000000"/><rect x="655" y="1621" width="46" height="46" fill="#000000"/><rect x="839" y="1621" width="46" height="46" fill="#000000"/><rect x="931" y="1621" width="46" height="46" fill="#000000"/><rect x="977" y="1621" width="46" height="46" fill="#000000"/><rect x="1069" y="1621" width="46" height="46" fill="#000000"/><rect x="1115" y="1621" width="46" height="46" fill="#000000"/><rect x="1161" y="1621" width="46" height="46" fill="#000000"/><rect x="1253" y="1621" width="46" height="46" fill="#000000"/><rect x="1345" y="1621" width="46" height="46" fill="#000000"/><rect x="1391" y="1621" width="46" height="46" fill="#000000"/><rect x="1437" y="1621" width="46" height="46" fill="#000000"/><rect x="1483" y="1621" width="46" height="46" fill="#000000"/><rect x="1529" y="1621" width="46" height="46" fill="#000000"/><rect x="1575" y="1621" width="46" height="46" fill="#000000"/><rect x="1621" y="1621" width="46" height="46" fill="#000000"/><rect x="1713" y="1621" width="46" height="46" fill="#000000"/><rect x="517" y="1667" width="46" height="46" fill="#000000"/><rect x="563" y="1667" width="46" height="46" fill="#000000"/><rect x="701" y="1667" width="46" height="46" fill="#000000"/><rect x="747" y="1667" width="46" height="46" fill="#000000"/><rect x="793" y="1667" width="46" height="46" fill="#000000"/><rect x="839" y="1667" width="46" height="46" fill="#000000"/><rect x="885" y="1667" width="46" height="46" fill="#000000"/><rect x="1023" y="1667" width="46" height="46" fill="#000000"/><rect x="1115" y="1667" width="46" height="46" fill="#000000"/><rect x="1207" y="1667" width="46" height="46" fill="#000000"/><rect x="1253" y="1667" width="46" height="46" fill="#000000"/><rect x="1483" y="1667" width="46" height="46" fill="#000000"/><rect x="1529" y="1667" width="46" height="46" fill="#000000"/><rect x="1759" y="1667" width="46" height="46" fill="#000000"/><rect x="1805" y="1667" width="46" height="46" fill="#000000"/><rect x="517" y="1713" width="46" height="46" fill="#000000"/><rect x="563" y="1713" width="46" height="46" fill="#000000"/><rect x="609" y="1713" width="46" height="46" fill="#000000"/><rect x="747" y="1713" width="46" height="46" fill="#000000"/><rect x="793" y="1713" width="46" height="46" fill="#000000"/><rect x="931" y="1713" width="46" height="46" fill="#000000"/><rect x="1069" y="1713" width="46" height="46" fill="#000000"/><rect x="1161" y="1713" width="46" height="46" fill="#000000"/><rect x="1207" y="1713" width="46" height="46" fill="#000000"/><rect x="1253" y="1713" width="46" height="46" fill="#000000"/><rect x="1299" y="1713" width="46" height="46" fill="#000000"/><rect x="1345" y="1713" width="46" height="46" fill="#000000"/><rect x="1483" y="1713" width="46" height="46" fill="#000000"/><rect x="1575" y="1713" width="46" height="46" fill="#000000"/><rect x="1713" y="1713" width="46" height="46" fill="#000000"/><rect x="1805" y="1713" width="46" height="46" fill="#000000"/><rect x="517" y="1759" width="46" height="46" fill="#000000"/><rect x="563" y="1759" width="46" height="46" fill="#000000"/><rect x="701" y="1759" width="46" height="46" fill="#000000"/><rect x="747" y="1759" width="46" height="46" fill="#000000"/><rect x="885" y="1759" width="46" height="46" fill="#000000"/><rect x="977" y="1759" width="46" height="46" fill="#000000"/><rect x="1023" y="1759" width="46" height="46" fill="#000000"/><rect x="1069" y="1759" width="46" height="46" fill="#000000"/><rect x="1115" y="1759" width="46" height="46" fill="#000000"/><rect x="1207" y="1759" width="46" height="46" fill="#000000"/><rect x="1529" y="1759" width="46" height="46" fill="#000000"/><rect x="1575" y="1759" width="46" height="46" fill="#000000"/><rect x="1621" y="1759" width="46" height="46" fill="#000000"/><rect x="1759" y="1759" width="46" height="46" fill="#000000"/><rect x="517" y="1805" width="46" height="46" fill="#000000"/><rect x="609" y="1805" width="46" height="46" fill="#000000"/><rect x="701" y="1805" width="46" height="46" fill="#000000"/><rect x="793" y="1805" width="46" height="46" fill="#000000"/><rect x="839" y="1805" width="46" height="46" fill="#000000"/><rect x="885" y="1805" width="46" height="46" fill="#000000"/><rect x="977" y="1805" width="46" height="46" fill="#000000"/><rect x="1069" y="1805" width="46" height="46" fill="#000000"/><rect x="1115" y="1805" width="46" height="46" fill="#000000"/><rect x="1391" y="1805" width="46" height="46" fill="#000000"/><rect x="1437" y="1805" width="46" height="46" fill="#000000"/><rect x="1483" y="1805" width="46" height="46" fill="#000000"/><rect x="1575" y="1805" width="46" height="46" fill="#000000"/><rect x="1759" y="1805" width="46" height="46" fill="#000000"/><rect x="1805" y="1805" width="46" height="46" fill="#000000"/><svg version="1.1" id="Ebene_1" x="149" y="149" viewBox="0 0 700 700" style="enable-background:new 0 0 700 700;" xml:space="preserve" width="322" height="322" shape-rendering="auto">

<path fill="#000000" d="M21.2-0.1C9.5-0.1-0.1,9.5-0.1,21.2v78.8v100v100v100v100v100v78.8c0,11.7,9.5,21.3,21.3,21.3h657.6  c11.7,0,21.3-9.5,21.3-21.3V600V500V400V300V200v-100V21.2c0-11.7-9.5-21.3-21.3-21.3H21.2z M600,200v100v100v100v87.8  c0,6.8-5.5,12.2-12.2,12.2H112.2c-6.8,0-12.2-5.5-12.2-12.2V500V400V300V200v-87.8c0-6.8,5.5-12.2,12.2-12.2h475.6  c6.8,0,12.2,5.5,12.2,12.2V200z"/>
</svg>
<svg version="1.1" id="Ebene_1" x="149" y="149" viewBox="0 0 700 700" style="enable-background:new 0 0 700 700;" xml:space="preserve" width="322" height="322" shape-rendering="auto">

<path fill="#000000" d="M500,400V300v-78.8c0-11.7-9.5-21.3-21.3-21.3H221.2c-11.7,0-21.3,9.5-21.3,21.3V300v100v78.8    c0,11.7,9.5,21.3,21.3,21.3h257.5c11.7,0,21.3-9.5,21.3-21.3V400z"/>
</svg>
<svg version="1.1" id="Ebene_1" x="1529" y="149" viewBox="0 0 700 700" style="enable-background:new 0 0 700 700;" xml:space="preserve" width="322" height="322" shape-rendering="auto">

<path fill="#000000" d="M21.2-0.1C9.5-0.1-0.1,9.5-0.1,21.2v78.8v100v100v100v100v100v78.8c0,11.7,9.5,21.3,21.3,21.3h657.6  c11.7,0,21.3-9.5,21.3-21.3V600V500V400V300V200v-100V21.2c0-11.7-9.5-21.3-21.3-21.3H21.2z M600,200v100v100v100v87.8  c0,6.8-5.5,12.2-12.2,12.2H112.2c-6.8,0-12.2-5.5-12.2-12.2V500V400V300V200v-87.8c0-6.8,5.5-12.2,12.2-12.2h475.6  c6.8,0,12.2,5.5,12.2,12.2V200z"/>
</svg>
<svg version="1.1" id="Ebene_1" x="1529" y="149" viewBox="0 0 700 700" style="enable-background:new 0 0 700 700;" xml:space="preserve" width="322" height="322" shape-rendering="auto">

<path fill="#000000" d="M500,400V300v-78.8c0-11.7-9.5-21.3-21.3-21.3H221.2c-11.7,0-21.3,9.5-21.3,21.3V300v100v78.8    c0,11.7,9.5,21.3,21.3,21.3h257.5c11.7,0,21.3-9.5,21.3-21.3V400z"/>
</svg>
<svg version="1.1" id="Ebene_1" x="149" y="1529" viewBox="0 0 700 700" style="enable-background:new 0 0 700 700;" xml:space="preserve" width="322" height="322" shape-rendering="auto">

<path fill="#000000" d="M21.2-0.1C9.5-0.1-0.1,9.5-0.1,21.2v78.8v100v100v100v100v100v78.8c0,11.7,9.5,21.3,21.3,21.3h657.6  c11.7,0,21.3-9.5,21.3-21.3V600V500V400V300V200v-100V21.2c0-11.7-9.5-21.3-21.3-21.3H21.2z M600,200v100v100v100v87.8  c0,6.8-5.5,12.2-12.2,12.2H112.2c-6.8,0-12.2-5.5-12.2-12.2V500V400V300V200v-87.8c0-6.8,5.5-12.2,12.2-12.2h475.6  c6.8,0,12.2,5.5,12.2,12.2V200z"/>
</svg>
<svg version="1.1" id="Ebene_1" x="149" y="1529" viewBox="0 0 700 700" style="enable-background:new 0 0 700 700;" xml:space="preserve" width="322" height="322" shape-rendering="auto">

<path fill="#000000" d="M500,400V300v-78.8c0-11.7-9.5-21.3-21.3-21.3H221.2c-11.7,0-21.3,9.5-21.3,21.3V300v100v78.8    c0,11.7,9.5,21.3,21.3,21.3h257.5c11.7,0,21.3-9.5,21.3-21.3V400z"/>
</svg>
</svg>

</svg>
