<svg version="1.0" xmlns="http://www.w3.org/2000/svg" viewBox="0 0 100 100" xml:space="preserve"><svg xmlns="http://www.w3.org/2000/svg" xmlns:xlink="http://www.w3.org/1999/xlink" width="100" height="100" viewBox="0 0 2000 2000" shape-rendering="crispEdges"><path fill="#fff" d="M0 0h2000v2000H0z"/><path d="M609 149h46v46h-46zM701 149h46v46h-46zM1115 149h46v46h-46zM1391 149h46v46h-46zM1437 149h46v46h-46zM517 195h46v46h-46zM609 195h46v46h-46zM747 195h46v46h-46zM793 195h46v46h-46zM931 195h46v46h-46zM1161 195h46v46h-46zM1253 195h46v46h-46zM1299 195h46v46h-46zM1345 195h46v46h-46zM1391 195h46v46h-46zM701 241h46v46h-46zM885 241h46v46h-46zM1023 241h46v46h-46zM1069 241h46v46h-46zM1207 241h46v46h-46zM1437 241h46v46h-46zM517 287h46v46h-46zM563 287h46v46h-46zM609 287h46v46h-46zM701 287h46v46h-46zM839 287h46v46h-46zM885 287h46v46h-46zM931 287h46v46h-46zM977 287h46v46h-46zM1391 287h46v46h-46zM563 333h46v46h-46zM793 333h46v46h-46zM1069 333h46v46h-46zM1115 333h46v46h-46zM1207 333h46v46h-46zM1253 333h46v46h-46zM1345 333h46v46h-46zM517 379h46v46h-46zM563 379h46v46h-46zM655 379h46v46h-46zM701 379h46v46h-46zM747 379h46v46h-46zM793 379h46v46h-46zM931 379h46v46h-46zM1161 379h46v46h-46zM1299 379h46v46h-46zM1345 379h46v46h-46zM517 425h46v46h-46zM609 425h46v46h-46zM701 425h46v46h-46zM793 425h46v46h-46zM885 425h46v46h-46zM977 425h46v46h-46zM1069 425h46v46h-46zM1161 425h46v46h-46zM1253 425h46v46h-46zM1345 425h46v46h-46zM1437 425h46v46h-46zM563 471h46v46h-46zM609 471h46v46h-46zM655 471h46v46h-46zM793 471h46v46h-46zM885 471h46v46h-46zM931 471h46v46h-46zM977 471h46v46h-46zM1023 471h46v46h-46zM1069 471h46v46h-46zM1115 471h46v46h-46zM1161 471h46v46h-46zM1207 471h46v46h-46zM1345 471h46v46h-46zM1437 471h46v46h-46zM149 517h46v46h-46zM195 517h46v46h-46zM241 517h46v46h-46zM287 517h46v46h-46zM333 517h46v46h-46zM425 517h46v46h-46zM471 517h46v46h-46zM517 517h46v46h-46zM563 517h46v46h-46zM655 517h46v46h-46zM747 517h46v46h-46zM839 517h46v46h-46zM931 517h46v46h-46zM977 517h46v46h-46zM1069 517h46v46h-46zM1299 517h46v46h-46zM1391 517h46v46h-46zM1437 517h46v46h-46zM1483 517h46v46h-46zM1575 517h46v46h-46zM1667 517h46v46h-46zM1759 517h46v46h-46zM195 563h46v46h-46zM287 563h46v46h-46zM379 563h46v46h-46zM471 563h46v46h-46zM563 563h46v46h-46zM609 563h46v46h-46zM701 563h46v46h-46zM793 563h46v46h-46zM839 563h46v46h-46zM885 563h46v46h-46zM977 563h46v46h-46zM1023 563h46v46h-46zM1115 563h46v46h-46zM1161 563h46v46h-46zM1253 563h46v46h-46zM1345 563h46v46h-46zM1437 563h46v46h-46zM1483 563h46v46h-46zM1575 563h46v46h-46zM1621 563h46v46h-46zM1805 563h46v46h-46zM149 609h46v46h-46zM195 609h46v46h-46zM287 609h46v46h-46zM333 609h46v46h-46zM379 609h46v46h-46zM425 609h46v46h-46zM517 609h46v46h-46zM563 609h46v46h-46zM747 609h46v46h-46zM793 609h46v46h-46zM839 609h46v46h-46zM931 609h46v46h-46zM1023 609h46v46h-46zM1161 609h46v46h-46zM1253 609h46v46h-46zM1299 609h46v46h-46zM1345 609h46v46h-46zM1437 609h46v46h-46zM1483 609h46v46h-46zM1529 609h46v46h-46zM1621 609h46v46h-46zM1713 609h46v46h-46zM1805 609h46v46h-46zM333 655h46v46h-46zM517 655h46v46h-46zM563 655h46v46h-46zM609 655h46v46h-46zM701 655h46v46h-46zM885 655h46v46h-46zM977 655h46v46h-46zM1023 655h46v46h-46zM1069 655h46v46h-46zM1115 655h46v46h-46zM1207 655h46v46h-46zM1299 655h46v46h-46zM1667 655h46v46h-46zM1759 655h46v46h-46zM333 701h46v46h-46zM379 701h46v46h-46zM425 701h46v46h-46zM471 701h46v46h-46zM609 701h46v46h-46zM701 701h46v46h-46zM793 701h46v46h-46zM839 701h46v46h-46zM885 701h46v46h-46zM1115 701h46v46h-46zM1253 701h46v46h-46zM1299 701h46v46h-46zM1391 701h46v46h-46zM1437 701h46v46h-46zM1483 701h46v46h-46zM1529 701h46v46h-46zM1575 701h46v46h-46zM1713 701h46v46h-46zM1759 701h46v46h-46zM1805 701h46v46h-46zM149 747h46v46h-46zM195 747h46v46h-46zM241 747h46v46h-46zM563 747h46v46h-46zM977 747h46v46h-46zM1069 747h46v46h-46zM1115 747h46v46h-46zM1161 747h46v46h-46zM1345 747h46v46h-46zM1391 747h46v46h-46zM1529 747h46v46h-46zM1575 747h46v46h-46zM1667 747h46v46h-46zM1805 747h46v46h-46zM149 793h46v46h-46zM241 793h46v46h-46zM287 793h46v46h-46zM379 793h46v46h-46zM425 793h46v46h-46zM471 793h46v46h-46zM655 793h46v46h-46zM701 793h46v46h-46zM747 793h46v46h-46zM793 793h46v46h-46zM839 793h46v46h-46zM885 793h46v46h-46zM931 793h46v46h-46zM1023 793h46v46h-46zM1161 793h46v46h-46zM1253 793h46v46h-46zM1299 793h46v46h-46zM1345 793h46v46h-46zM1391 793h46v46h-46zM1437 793h46v46h-46zM1483 793h46v46h-46zM1529 793h46v46h-46zM1621 793h46v46h-46zM1713 793h46v46h-46zM1759 793h46v46h-46zM1805 793h46v46h-46zM287 839h46v46h-46zM333 839h46v46h-46zM517 839h46v46h-46zM563 839h46v46h-46zM609 839h46v46h-46zM655 839h46v46h-46zM747 839h46v46h-46zM885 839h46v46h-46zM931 839h46v46h-46zM977 839h46v46h-46zM1023 839h46v46h-46zM1069 839h46v46h-46zM1115 839h46v46h-46zM1207 839h46v46h-46zM1391 839h46v46h-46zM1437 839h46v46h-46zM1483 839h46v46h-46zM1529 839h46v46h-46zM1575 839h46v46h-46zM1667 839h46v46h-46zM1713 839h46v46h-46zM1759 839h46v46h-46zM241 885h46v46h-46zM333 885h46v46h-46zM425 885h46v46h-46zM563 885h46v46h-46zM655 885h46v46h-46zM747 885h46v46h-46zM839 885h46v46h-46zM885 885h46v46h-46zM1069 885h46v46h-46zM1115 885h46v46h-46zM1161 885h46v46h-46zM1253 885h46v46h-46zM1345 885h46v46h-46zM1391 885h46v46h-46zM1437 885h46v46h-46zM1529 885h46v46h-46zM1621 885h46v46h-46zM1667 885h46v46h-46zM1713 885h46v46h-46zM1759 885h46v46h-46zM1805 885h46v46h-46zM149 931h46v46h-46zM241 931h46v46h-46zM333 931h46v46h-46zM517 931h46v46h-46zM563 931h46v46h-46zM701 931h46v46h-46zM793 931h46v46h-46zM839 931h46v46h-46zM977 931h46v46h-46zM1115 931h46v46h-46zM1207 931h46v46h-46zM1253 931h46v46h-46zM1483 931h46v46h-46zM1529 931h46v46h-46zM1667 931h46v46h-46zM1805 931h46v46h-46zM149 977h46v46h-46zM379 977h46v46h-46zM425 977h46v46h-46zM471 977h46v46h-46zM517 977h46v46h-46zM563 977h46v46h-46zM747 977h46v46h-46zM793 977h46v46h-46zM839 977h46v46h-46zM931 977h46v46h-46zM1161 977h46v46h-46zM1207 977h46v46h-46zM1253 977h46v46h-46zM1299 977h46v46h-46zM1345 977h46v46h-46zM1391 977h46v46h-46zM1483 977h46v46h-46zM1529 977h46v46h-46zM1621 977h46v46h-46zM1667 977h46v46h-46zM1713 977h46v46h-46zM1759 977h46v46h-46zM1805 977h46v46h-46zM379 1023h46v46h-46zM701 1023h46v46h-46zM747 1023h46v46h-46zM885 1023h46v46h-46zM931 1023h46v46h-46zM977 1023h46v46h-46zM1023 1023h46v46h-46zM1069 1023h46v46h-46zM1115 1023h46v46h-46zM1207 1023h46v46h-46zM1299 1023h46v46h-46zM1437 1023h46v46h-46zM1483 1023h46v46h-46zM1575 1023h46v46h-46zM1713 1023h46v46h-46zM1759 1023h46v46h-46zM149 1069h46v46h-46zM195 1069h46v46h-46zM241 1069h46v46h-46zM333 1069h46v46h-46zM379 1069h46v46h-46zM425 1069h46v46h-46zM471 1069h46v46h-46zM701 1069h46v46h-46zM747 1069h46v46h-46zM839 1069h46v46h-46zM931 1069h46v46h-46zM977 1069h46v46h-46zM1069 1069h46v46h-46zM1115 1069h46v46h-46zM1299 1069h46v46h-46zM1391 1069h46v46h-46zM1483 1069h46v46h-46zM1529 1069h46v46h-46zM1621 1069h46v46h-46zM1713 1069h46v46h-46zM1759 1069h46v46h-46zM1805 1069h46v46h-46zM149 1115h46v46h-46zM287 1115h46v46h-46zM609 1115h46v46h-46zM793 1115h46v46h-46zM1023 1115h46v46h-46zM1115 1115h46v46h-46zM1161 1115h46v46h-46zM1253 1115h46v46h-46zM1391 1115h46v46h-46zM1483 1115h46v46h-46zM1575 1115h46v46h-46zM1621 1115h46v46h-46zM1667 1115h46v46h-46zM1805 1115h46v46h-46zM149 1161h46v46h-46zM195 1161h46v46h-46zM241 1161h46v46h-46zM287 1161h46v46h-46zM425 1161h46v46h-46zM609 1161h46v46h-46zM655 1161h46v46h-46zM701 1161h46v46h-46zM931 1161h46v46h-46zM1069 1161h46v46h-46zM1161 1161h46v46h-46zM1253 1161h46v46h-46zM1299 1161h46v46h-46zM1345 1161h46v46h-46zM1437 1161h46v46h-46zM1529 1161h46v46h-46zM1621 1161h46v46h-46zM1667 1161h46v46h-46zM1713 1161h46v46h-46zM333 1207h46v46h-46zM471 1207h46v46h-46zM517 1207h46v46h-46zM655 1207h46v46h-46zM885 1207h46v46h-46zM977 1207h46v46h-46zM1023 1207h46v46h-46zM1069 1207h46v46h-46zM1115 1207h46v46h-46zM1161 1207h46v46h-46zM1207 1207h46v46h-46zM1345 1207h46v46h-46zM1391 1207h46v46h-46zM1437 1207h46v46h-46zM1483 1207h46v46h-46zM1713 1207h46v46h-46zM241 1253h46v46h-46zM425 1253h46v46h-46zM563 1253h46v46h-46zM609 1253h46v46h-46zM655 1253h46v46h-46zM839 1253h46v46h-46zM1253 1253h46v46h-46zM1299 1253h46v46h-46zM1391 1253h46v46h-46zM1437 1253h46v46h-46zM1483 1253h46v46h-46zM1529 1253h46v46h-46zM1575 1253h46v46h-46zM1713 1253h46v46h-46zM1759 1253h46v46h-46zM1805 1253h46v46h-46zM149 1299h46v46h-46zM195 1299h46v46h-46zM379 1299h46v46h-46zM471 1299h46v46h-46zM609 1299h46v46h-46zM701 1299h46v46h-46zM747 1299h46v46h-46zM839 1299h46v46h-46zM885 1299h46v46h-46zM977 1299h46v46h-46zM1069 1299h46v46h-46zM1115 1299h46v46h-46zM1161 1299h46v46h-46zM1345 1299h46v46h-46zM1437 1299h46v46h-46zM1529 1299h46v46h-46zM1575 1299h46v46h-46zM149 1345h46v46h-46zM425 1345h46v46h-46zM471 1345h46v46h-46zM517 1345h46v46h-46zM747 1345h46v46h-46zM793 1345h46v46h-46zM839 1345h46v46h-46zM931 1345h46v46h-46zM1161 1345h46v46h-46zM1253 1345h46v46h-46zM1299 1345h46v46h-46zM1345 1345h46v46h-46zM1391 1345h46v46h-46zM1483 1345h46v46h-46zM1529 1345h46v46h-46zM1575 1345h46v46h-46zM1621 1345h46v46h-46zM1713 1345h46v46h-46zM149 1391h46v46h-46zM241 1391h46v46h-46zM333 1391h46v46h-46zM379 1391h46v46h-46zM471 1391h46v46h-46zM563 1391h46v46h-46zM609 1391h46v46h-46zM701 1391h46v46h-46zM747 1391h46v46h-46zM885 1391h46v46h-46zM931 1391h46v46h-46zM977 1391h46v46h-46zM1023 1391h46v46h-46zM1069 1391h46v46h-46zM1207 1391h46v46h-46zM1299 1391h46v46h-46zM1437 1391h46v46h-46zM1483 1391h46v46h-46zM1575 1391h46v46h-46zM1667 1391h46v46h-46zM1713 1391h46v46h-46zM1759 1391h46v46h-46zM1805 1391h46v46h-46zM149 1437h46v46h-46zM379 1437h46v46h-46zM425 1437h46v46h-46zM471 1437h46v46h-46zM517 1437h46v46h-46zM609 1437h46v46h-46zM701 1437h46v46h-46zM793 1437h46v46h-46zM839 1437h46v46h-46zM885 1437h46v46h-46zM931 1437h46v46h-46zM977 1437h46v46h-46zM1069 1437h46v46h-46zM1253 1437h46v46h-46zM1299 1437h46v46h-46zM1391 1437h46v46h-46zM1437 1437h46v46h-46zM1483 1437h46v46h-46zM1529 1437h46v46h-46zM1575 1437h46v46h-46zM1621 1437h46v46h-46zM1759 1437h46v46h-46zM1805 1437h46v46h-46zM517 1483h46v46h-46zM563 1483h46v46h-46zM977 1483h46v46h-46zM1023 1483h46v46h-46zM1115 1483h46v46h-46zM1161 1483h46v46h-46zM1345 1483h46v46h-46zM1437 1483h46v46h-46zM1621 1483h46v46h-46zM1805 1483h46v46h-46zM517 1529h46v46h-46zM563 1529h46v46h-46zM609 1529h46v46h-46zM655 1529h46v46h-46zM701 1529h46v46h-46zM931 1529h46v46h-46zM1023 1529h46v46h-46zM1161 1529h46v46h-46zM1207 1529h46v46h-46zM1253 1529h46v46h-46zM1299 1529h46v46h-46zM1345 1529h46v46h-46zM1437 1529h46v46h-46zM1529 1529h46v46h-46zM1621 1529h46v46h-46zM1667 1529h46v46h-46zM1713 1529h46v46h-46zM1759 1529h46v46h-46zM1805 1529h46v46h-46zM655 1575h46v46h-46zM793 1575h46v46h-46zM885 1575h46v46h-46zM1023 1575h46v46h-46zM1069 1575h46v46h-46zM1115 1575h46v46h-46zM1207 1575h46v46h-46zM1437 1575h46v46h-46zM1621 1575h46v46h-46zM1713 1575h46v46h-46zM517 1621h46v46h-46zM609 1621h46v46h-46zM655 1621h46v46h-46zM839 1621h46v46h-46zM931 1621h46v46h-46zM977 1621h46v46h-46zM1069 1621h46v46h-46zM1115 1621h46v46h-46zM1161 1621h46v46h-46zM1253 1621h46v46h-46zM1345 1621h46v46h-46zM1391 1621h46v46h-46zM1437 1621h46v46h-46zM1483 1621h46v46h-46zM1529 1621h46v46h-46zM1575 1621h46v46h-46zM1621 1621h46v46h-46zM1713 1621h46v46h-46zM517 1667h46v46h-46zM563 1667h46v46h-46zM701 1667h46v46h-46zM747 1667h46v46h-46zM793 1667h46v46h-46zM839 1667h46v46h-46zM885 1667h46v46h-46zM1023 1667h46v46h-46zM1115 1667h46v46h-46zM1207 1667h46v46h-46zM1253 1667h46v46h-46zM1483 1667h46v46h-46zM1529 1667h46v46h-46zM1759 1667h46v46h-46zM1805 1667h46v46h-46zM517 1713h46v46h-46zM563 1713h46v46h-46zM609 1713h46v46h-46zM747 1713h46v46h-46zM793 1713h46v46h-46zM931 1713h46v46h-46zM1069 1713h46v46h-46zM1161 1713h46v46h-46zM1207 1713h46v46h-46zM1253 1713h46v46h-46zM1299 1713h46v46h-46zM1345 1713h46v46h-46zM1483 1713h46v46h-46zM1575 1713h46v46h-46zM1713 1713h46v46h-46zM1805 1713h46v46h-46zM517 1759h46v46h-46zM563 1759h46v46h-46zM701 1759h46v46h-46zM747 1759h46v46h-46zM885 1759h46v46h-46zM977 1759h46v46h-46zM1023 1759h46v46h-46zM1069 1759h46v46h-46zM1115 1759h46v46h-46zM1207 1759h46v46h-46zM1529 1759h46v46h-46zM1575 1759h46v46h-46zM1621 1759h46v46h-46zM1759 1759h46v46h-46zM517 1805h46v46h-46zM609 1805h46v46h-46zM701 1805h46v46h-46zM793 1805h46v46h-46zM839 1805h46v46h-46zM885 1805h46v46h-46zM977 1805h46v46h-46zM1069 1805h46v46h-46zM1115 1805h46v46h-46zM1391 1805h46v46h-46zM1437 1805h46v46h-46zM1483 1805h46v46h-46zM1575 1805h46v46h-46zM1759 1805h46v46h-46zM1805 1805h46v46h-46z"/><svg x="149" y="149" viewBox="0 0 700 700" style="enable-background:new 0 0 700 700" xml:space="preserve" width="322" height="322" shape-rendering="auto"><path d="M21.2-.1C9.5-.1-.1 9.5-.1 21.2V678.8c0 11.7 9.5 21.3 21.3 21.3h657.6c11.7 0 21.3-9.5 21.3-21.3V21.2c0-11.7-9.5-21.3-21.3-21.3H21.2zM600 200v387.8c0 6.8-5.5 12.2-12.2 12.2H112.2c-6.8 0-12.2-5.5-12.2-12.2V112.2c0-6.8 5.5-12.2 12.2-12.2h475.6c6.8 0 12.2 5.5 12.2 12.2V200z"/></svg><svg x="149" y="149" viewBox="0 0 700 700" style="enable-background:new 0 0 700 700" xml:space="preserve" width="322" height="322" shape-rendering="auto"><path d="M500 400V221.2c0-11.7-9.5-21.3-21.3-21.3H221.2c-11.7 0-21.3 9.5-21.3 21.3v257.6c0 11.7 9.5 21.3 21.3 21.3h257.5c11.7 0 21.3-9.5 21.3-21.3V400z"/></svg><svg x="1529" y="149" viewBox="0 0 700 700" style="enable-background:new 0 0 700 700" xml:space="preserve" width="322" height="322" shape-rendering="auto"><path d="M21.2-.1C9.5-.1-.1 9.5-.1 21.2V678.8c0 11.7 9.5 21.3 21.3 21.3h657.6c11.7 0 21.3-9.5 21.3-21.3V21.2c0-11.7-9.5-21.3-21.3-21.3H21.2zM600 200v387.8c0 6.8-5.5 12.2-12.2 12.2H112.2c-6.8 0-12.2-5.5-12.2-12.2V112.2c0-6.8 5.5-12.2 12.2-12.2h475.6c6.8 0 12.2 5.5 12.2 12.2V200z"/></svg><svg x="1529" y="149" viewBox="0 0 700 700" style="enable-background:new 0 0 700 700" xml:space="preserve" width="322" height="322" shape-rendering="auto"><path d="M500 400V221.2c0-11.7-9.5-21.3-21.3-21.3H221.2c-11.7 0-21.3 9.5-21.3 21.3v257.6c0 11.7 9.5 21.3 21.3 21.3h257.5c11.7 0 21.3-9.5 21.3-21.3V400z"/></svg><svg x="149" y="1529" viewBox="0 0 700 700" style="enable-background:new 0 0 700 700" xml:space="preserve" width="322" height="322" shape-rendering="auto"><path d="M21.2-.1C9.5-.1-.1 9.5-.1 21.2V678.8c0 11.7 9.5 21.3 21.3 21.3h657.6c11.7 0 21.3-9.5 21.3-21.3V21.2c0-11.7-9.5-21.3-21.3-21.3H21.2zM600 200v387.8c0 6.8-5.5 12.2-12.2 12.2H112.2c-6.8 0-12.2-5.5-12.2-12.2V112.2c0-6.8 5.5-12.2 12.2-12.2h475.6c6.8 0 12.2 5.5 12.2 12.2V200z"/></svg><svg x="149" y="1529" viewBox="0 0 700 700" style="enable-background:new 0 0 700 700" xml:space="preserve" width="322" height="322" shape-rendering="auto"><path d="M500 400V221.2c0-11.7-9.5-21.3-21.3-21.3H221.2c-11.7 0-21.3 9.5-21.3 21.3v257.6c0 11.7 9.5 21.3 21.3 21.3h257.5c11.7 0 21.3-9.5 21.3-21.3V400z"/></svg></svg></svg>